<mxfile host="65bd71144e">
    <diagram id="JUc9z4PWggEyZfrmAPxH" name="Page-1">
        <mxGraphModel dx="390" dy="641" grid="1" gridSize="10" guides="1" tooltips="1" connect="1" arrows="1" fold="1" page="1" pageScale="1" pageWidth="1600" pageHeight="900" math="0" shadow="0">
            <root>
                <mxCell id="0"/>
                <mxCell id="1" parent="0"/>
                <mxCell id="2" value="" style="shape=image;imageAspect=0;aspect=fixed;verticalLabelPosition=bottom;verticalAlign=top;image=data:image/svg+xml,PHN2ZyB4bWxuczp4bGluaz0iaHR0cDovL3d3dy53My5vcmcvMTk5OS94bGluayIgeG1sbnM9Imh0dHA6Ly93d3cudzMub3JnLzIwMDAvc3ZnIiBoZWlnaHQ9IjEyOCIgd2lkdGg9IjI4Ny4zNzUiIHZlcnNpb249IjEuMSIgdmlld0JveD0iMCAwIDIyOTkgMTAyNCIgY2xhc3M9Imljb24iPgogICAgPHBhdGggZmlsbD0iIzEyOTZkYiIgZD0iTTE3NzUuNzE0NzE3IDMyMi4zODgyOTNjNi4wMTc5MTUgMC45NjcxNjUgNTMuMTk0MDY4LTkuNTY0MTg2IDU1LjEyODM5OC02LjAxNzkxNXMyNC4wNzE2NTkgMTU1LjkyODQ3MSAxOC41OTEwNTggMTU2Ljg5NTYzNi00NC4wNTk3MzMgMTAuMzE2NDI1LTQ0LjA1OTczMyAxMC4zMTY0MjVjLTMuMDA4OTU3LTIwLjUyNTM4OC0yOC41ODUwOTUtMTQ3Ljg2ODc2NC0yOS4xMjI0MS0xNjEuMTk0MTQ2bTc1LjIyMzkzNS0xNC42MTQ5MzZsMjAuNTI1Mzg4IDE2My4wMjEwMTNjMTAuNzQ2Mjc2IDAgNTMuMTk0MDY4LTMuNTQ2MjcxIDU3LjE3MDE5MS00LjA4MzU4NS02LjAxNzkxNS02MS42ODM2MjctMTYuNTQ5MjY2LTE1OC45Mzc0MjgtMTYuNTQ5MjY2LTE1OC45Mzc0MjhhMTU4LjE4NTE4OSAxNTguMTg1MTg5IDAgMCAwLTYxLjE0NjMxMyAwbS00MC42MjA5MjUgMjI1LjY3MTgwNXM5Mi43NDAzNjYtMjMuNTM0MzQ1IDEyNi4zNzYyMTEtMTIuMDM1ODNjMTYuOTc5MTE3IDYxLjY4MzYyNyA0OC4xNDMzMTggNDA3LjYwNjI2NSA1MS4xNTIyNzYgNDIxLjY4Mzg4Ny0yMS40OTI1NTMgMi40NzE2NDQtOTAuMjY4NzIyIDguNDg5NTU4LTk1Ljc0OTMyMyA5Ljk5NDAzNy00LjUxMzQzNi0yNi4wMDU5ODktODEuNzc5MTY0LTQwMy4wOTI4MjktODEuNzc5MTY0LTQxOS4xMDQ3OG0zNDMuODgwODQ2LTIwNy41MTA1OThjNS40ODA2MDEgMS41MDQ0NzkgNTQuNTkxMDg0LTUuMDUwNzUgNTUuMTI4Mzk4LTEuNTA0NDc5IDAuOTY3MTY1IDEyLjAzNTgzIDYuMDE3OTE1IDE1Ny40MzI5NSAwIDE1Ny45NzAyNjRsLTQ0LjU5NzA0NyAzLjk3NjEyMmMtMS4wNzQ2MjgtMjAuMDk1NTM3LTEyLjAzNTgzLTE0Ni45MDE1OTktMTAuNzQ2Mjc2LTE2MC40NDE5MDdtNzUuMjIzOTM1LTMuOTc2MTIybDQuMDgzNTg1IDE2MS4xOTQxNDZjMTAuNzQ2Mjc2IDAgNTIuNjU2NzU0IDIuNTc5MTA2IDU3LjE3MDE5IDIuMDQxNzkyLTEuMDc0NjI4LTYxLjY4MzYyNyAwLTE1OC45Mzc0MjggMC0xNTguOTM3NDI4YTI3MS4yMzYwMTcgMjcxLjIzNjAxNyAwIDAgMC02MS4yNTM3NzUtMy45NzYxMjJtLTY0LjQ3NzY1OSAyMTYuMDAwMTU2czk0LjY3NDY5NS0xMi40NjU2ODEgMTI2LjgwNjA2MiAyLjU3OTEwNmM2Ljk4NTA4IDcyLjIxNDk3OCA2LjAxNzkxNSA0MDguMzU4NTA0IDYuOTg1MDggNDIyLjY1MTA1Mi0yMS40OTI1NTMgMC05MC4yNjg3MjIgMC45NjcxNjUtOTUuNzQ5MzIzIDEuOTM0MzMtMC45NjcxNjUtMjYuMDA1OTg5LTM5LjU0NjI5Ny00MTAuNjE1MjIyLTM4LjA0MTgxOS00MjcuMTY0NDg4TTE5NDUuMDc2MDMzIDEyNS4wODY2NThjNTQuNjk4NTQ3IDI3OC42NTA5NDggOTYuNzE2NDg4IDc1NC45MjU5MTkgOTcuNzkxMTE2IDc4NS41NTI4MDYgMCAwIDQyLjk4NTEwNiAwLjk2NzE2NSA5MS43NzMyIDMuOTc2MTIzLTI4LjU4NTA5NS0zMDAuMjUwOTYzLTYzLjcyNTQxOS03ODAuMDcyMjA2LTYzLjE4ODEwNS03OTUuMjI0NDU2LTEyLjAzNTgzLTEzLjU0MDMwOC0xMjYuMzc2MjExIDYuMDE3OTE1LTEyNi4zNzYyMTEgNi4wMTc5MTVNMTgyNC4zOTUzNDkgNzg0LjQ3ODE3OWMtMTAuNzQ2Mjc2LTc4LjEyNTQzLTI5MC4xNDk0NjMtMTY2Ljg4OTY3My00NDcuNjg5ODc2LTEzOC4zMDQ1NzggMCAwLTE5LjU1ODIyMy0xNzEuOTQwNDIzLTI3LjA4MDYxNy0zMzkuNDc0ODcyLTYuNTU1MjI5LTE0My4zNTUzMjgtMC45NjcxNjUtMjgyLjczNDUzMyAwLTMwNS43MzE1NjQtMTAuNzQ2Mjc2LTcuNTIyMzkzLTEyMy45MDQ1NjcgNDYuNTMxMzc3LTE4NS4wNTA4OCA2OS4wOTg1NTcgMCAwIDczLjE4MjE0MiAzMDkuOTIyNjEyIDEyNi4zNzYyMTEgOTUyLjU0OTk0MyAwIDAgODQuNjgwNjU4IDkuMDI2ODcyIDIzMC4wNzc3NzgtMTkuMDIwOTFzMzE3Ljg3NDg1Ny0xMTYuMDU5Nzg1IDMwMy4zNjczODQtMjE5LjExNjU3Nk0xNDgyLjk4NjE0NyA5MjUuMTQ2OTM3bC0yNC41MDE1MTEtMTc2Ljk5MTE3MmM2LjAxNzkxNS0zLjAwODk1NyAxNTYuODk1NjM2IDUzLjE5NDA2OCAxNzIuOTA3NTg4IDYzLjE4ODEwNS0yLjQ3MTY0NCAxMC43NDYyNzYtMTQ4LjQwNjA3NyAxMTMuODAzMDY3LTE0OC40MDYwNzcgMTEzLjgwMzA2N002MTAuNjAzNDI3IDMyMi4zODgyOTNjNi4wMTc5MTUgMC45NjcxNjUgNTMuNzMxMzgyLTkuNTY0MTg2IDU1LjEyODM5OC02LjAxNzkxNVM2ODkuODAzNDg0IDQ3Mi44MzYxNjMgNjg0LjMyMjg4MyA0NzMuNDgwOTM5cy00NC41OTcwNDcgOS45OTQwMzctNDQuNTk3MDQ3IDkuOTk0MDM3Yy0zLjAwODk1Ny0yMC41MjUzODgtMjguNTg1MDk1LTE0Ny44Njg3NjQtMjkuMTIyNDA5LTE2MS4xOTQxNDZtNzUuMjIzOTM0LTE0LjYxNDkzNmwyMC41MjUzODggMTYzLjAyMTAxM2MxMC43NDYyNzYgMCA1My43MzEzODItMy41NDYyNzEgNTcuMTcwMTkxLTQuMDgzNTg1LTYuNDQ3NzY2LTYxLjY4MzYyNy0xNi41NDkyNjYtMTU4LjkzNzQyOC0xNi41NDkyNjYtMTU4LjkzNzQyOGExNTguMTg1MTg5IDE1OC4xODUxODkgMCAwIDAtNjEuMTQ2MzEzIDBNNjQ0Ljc3NjU4NiA1MzQuMDg5OTM4czkyLjc0MDM2Ni0yMy41MzQzNDUgMTI2LjM3NjIxLTEyLjAzNTgyOWMxNi45NzkxMTcgNjEuNjgzNjI3IDQ4LjE0MzMxOCA0MDcuNjA2MjY1IDUxLjE1MjI3NiA0MjEuNjgzODg3LTIxLjQ5MjU1MyAyLjQ3MTY0NC05MC4yNjg3MjIgOC40ODk1NTgtOTUuNzQ5MzIzIDkuOTk0MDM3QzcyMi40NzIxNjQgOTI3LjcyNjA0NCA2NDQuNzc2NTg2IDU1MC42MzkyMDQgNjQ0Ljc3NjU4NiA1MzQuMDg5OTM4bTM0My44ODA4NDUtMjA3LjUxMDU5N2M1LjQ4MDYwMSAxLjUwNDQ3OSA1NC41OTEwODQtNS4wNTA3NSA1NS4xMjgzOTgtMS41MDQ0NzkgMC45NjcxNjUgMTIuMDM1ODMgNi4wMTc5MTUgMTU3LjQzMjk1IDAuNTM3MzE0IDE1Ny45NzAyNjNsLTQ0LjkxOTQzNSAzLjk3NjEyM2MtMS4wNzQ2MjgtMjAuMDk1NTM3LTExLjYwNTk3OS0xNDYuOTAxNTk5LTEwLjc0NjI3Ny0xNjAuNDQxOTA3bTc1LjIyMzkzNS00LjE5MTA0OGw0LjA4MzU4NSAxNjEuMTk0MTQ2YzEwLjc0NjI3NiAwIDUyLjU0OTI5MiAyLjU3OTEwNiA1Ny4wNjI3MjggMi4wNDE3OTMtMC45NjcxNjUtNjEuNjgzNjI3IDAtMTU4LjkzNzQyOCAwLTE1OC45Mzc0MjlBMzA0Ljc2NDM5OSAzMDQuNzY0Mzk5IDAgMCAwIDEwNjMuODgxMzY2IDMyMi4zODgyOTNtLTY0LjQ3NzY1OCAyMTYuMDAwMTU2czk0LjY3NDY5NS0xMi40NjU2ODEgMTI2LjgwNjA2MSAyLjU3OTEwNmM2Ljk4NTA4IDcyLjIxNDk3OCA2LjAxNzkxNSA0MDguMzU4NTA0IDYuOTg1MDggNDIyLjY1MTA1Mi0yMS40OTI1NTMgMC05MC4yNjg3MjIgMC45NjcxNjUtOTUuNzQ5MzIzIDEuOTM0MzMgMC0yNi4wMDU5ODktMzkuNTQ2Mjk3LTQxMC42MTUyMjItMzguMDQxODE4LTQyNy4xNjQ0ODhNNzc5LjUzNDg5MiAxMjUuMDg2NjU4YzU0LjY5ODU0NyAyNzguNjUwOTQ4IDk2LjcxNjQ4OCA3NTQuOTI1OTE5IDk3Ljc5MTExNSA3ODUuNTUyODA2IDAgMCA0Mi45ODUxMDYgMC45NjcxNjUgOTEuNzczMjAxIDMuOTc2MTIzQzk0MC41MTQxMTMgNjE0LjM2NDYyMyA5MDUuMzczNzg5IDEzNC41NDMzODEgOTA1LjkxMTEwMyAxMTguMjA5MDQxYy0xMi4wMzU4My0xMy4wMDI5OTQtMTI2LjM3NjIxMSA2LjU1NTIyOS0xMjYuMzc2MjExIDYuNTU1MjI4TTY1OS4yODQwNTkgNzg0LjQ3ODE3OWMtMTAuNzQ2Mjc2LTc4LjEyNTQzLTI5MC4xNDk0NjMtMTY2Ljg4OTY3My00NDcuNjg5ODc2LTEzOC4zMDQ1NzggMCAwLTE5LjU1ODIyMy0xNzEuOTQwNDIzLTI3LjA4MDYxNy0zMzkuNDc0ODcyLTYuNTU1MjI5LTE0My4zNTUzMjgtMS4wNzQ2MjgtMjgyLjczNDUzMyAwLTMwNS43MzE1NjRDMTc0LjUxOTUyOS02LjM0MDMwMyA2MS4xNDYzMTMgNDcuMjgzNjE2IDAgNjkuODUwNzk3YzAgMCA3My4xODIxNDIgMzA5LjkyMjYxMiAxMjYuMzc2MjExIDk1Mi41NDk5NDIgMCAwIDg0LjY4MDY1OCA5LjAyNjg3MiAyMzAuMDc3Nzc4LTE5LjAyMDkwOVM2NzMuNzkxNTMyIDg4Ny41MzQ5NyA2NTkuMjg0MDU5IDc4NC40NzgxNzlNMzE3LjMzNzU0MyA5MjUuMTQ2OTM3bC0yNC42MDg5NzMtMTc2Ljk5MTE3MmM2LjAxNzkxNS0zLjAwODk1NyAxNTcuMDAzMDk5IDUzLjE5NDA2OCAxNzMuMDE1MDUgNjMuMTg4MTA1LTIuNDcxNjQ0IDEwLjc0NjI3Ni0xNDguNDA2MDc3IDExMy44MDMwNjctMTQ4LjQwNjA3NyAxMTMuODAzMDY3Ii8+Cjwvc3ZnPg==;" vertex="1" parent="1">
                    <mxGeometry x="50" y="270" width="287" height="128" as="geometry"/>
                </mxCell>
            </root>
        </mxGraphModel>
    </diagram>
</mxfile>